<svg width="30" height="31" viewBox="0 0 30 31" fill="none" xmlns="http://www.w3.org/2000/svg">
<g clip-path="url(#clip0_655_6855)">
<path d="M20.6203 0.5C26.3854 0.5 30 4.08828 30 9.87969V13.3631L29.9895 13.5184C29.9518 13.7932 29.8158 14.0452 29.6067 14.2275C29.3977 14.4099 29.1296 14.5104 28.8521 14.5104H28.8393L28.6576 14.4963C28.3871 14.4524 28.1416 14.3121 27.9664 14.1014C27.7911 13.8906 27.6981 13.6236 27.7043 13.3496V9.87969C27.7043 5.31523 25.1848 2.7957 20.6203 2.7957H9.37969C4.80234 2.7957 2.2957 5.31523 2.2957 9.87969V21.1332C2.2957 25.6977 4.81523 28.2043 9.37969 28.2043H20.6203C25.1977 28.2043 27.7043 25.6848 27.7043 21.1332C27.7043 20.8288 27.8252 20.5368 28.0405 20.3216C28.2558 20.1063 28.5477 19.9854 28.8521 19.9854C29.1566 19.9854 29.4485 20.1063 29.6638 20.3216C29.8791 20.5368 30 20.8288 30 21.1332C30 26.9117 26.4117 30.5 20.6332 30.5H9.37969C3.58828 30.5 0 26.9117 0 21.1332V9.87969C0 4.08828 3.58828 0.5 9.37969 0.5L20.6203 0.5ZM8.62793 11.8326C8.77869 11.8376 8.92699 11.8723 9.06433 11.9347C9.20166 11.9971 9.32534 12.086 9.42827 12.1963C9.53119 12.3065 9.61135 12.436 9.66415 12.5773C9.71694 12.7186 9.74134 12.869 9.73594 13.0197V22.6109C9.73505 22.7645 9.70335 22.9164 9.64272 23.0576C9.5821 23.1987 9.49377 23.3262 9.38297 23.4326C9.27218 23.539 9.14116 23.6221 8.99768 23.677C8.8542 23.7318 8.70118 23.7574 8.54766 23.752C8.39414 23.7467 8.24325 23.7106 8.10393 23.6459C7.9646 23.5813 7.83966 23.4893 7.73652 23.3755C7.63337 23.2616 7.5541 23.1283 7.50341 22.9833C7.45272 22.8383 7.43164 22.6845 7.44141 22.5312V12.9271L7.46191 12.7479C7.51386 12.4805 7.66038 12.2409 7.87463 12.0728C8.08888 11.9047 8.35652 11.8194 8.62852 11.8326H8.62793ZM15.0527 7.33379C15.3572 7.33379 15.6491 7.45472 15.8644 7.66999C16.0797 7.88525 16.2006 8.17721 16.2006 8.48164V22.5441C16.2006 22.8486 16.0797 23.1405 15.8644 23.3558C15.6491 23.5711 15.3572 23.692 15.0527 23.692C14.7483 23.692 14.4563 23.5711 14.2411 23.3558C14.0258 23.1405 13.9049 22.8486 13.9049 22.5441V8.48164C13.9049 8.17721 14.0258 7.88525 14.2411 7.66999C14.4563 7.45472 14.7483 7.33379 15.0527 7.33379ZM21.4113 16.8986C21.7156 16.8988 22.0073 17.0197 22.2224 17.2348C22.4375 17.45 22.5584 17.7417 22.5586 18.0459V22.5312C22.562 22.6841 22.5349 22.8362 22.4788 22.9784C22.4227 23.1207 22.3387 23.2503 22.2318 23.3596C22.1249 23.469 21.9972 23.5558 21.8563 23.6152C21.7153 23.6745 21.564 23.705 21.411 23.705C21.2581 23.705 21.1067 23.6745 20.9658 23.6152C20.8248 23.5558 20.6972 23.469 20.5903 23.3596C20.4834 23.2503 20.3994 23.1207 20.3433 22.9784C20.2871 22.8362 20.26 22.6841 20.2635 22.5312V18.0459C20.2635 17.8952 20.2932 17.746 20.3509 17.6067C20.4086 17.4675 20.4931 17.341 20.5997 17.2345C20.7063 17.1279 20.8328 17.0434 20.9721 16.9858C21.1114 16.9282 21.2606 16.8986 21.4113 16.8986Z" fill="#E2E8FF"/>
</g>
<defs>
<clipPath id="clip0_655_6855">
<rect width="30" height="30" fill="white" transform="translate(0 0.5)"/>
</clipPath>
</defs>
</svg>
