<svg width="35" height="35" viewBox="0 0 35 35" fill="none" xmlns="http://www.w3.org/2000/svg">
<path d="M29.0429 14.8515H23.9581C23.6557 14.8515 23.4112 14.607 23.4112 14.3046C23.4112 11.0201 20.7589 8.37047 17.4995 8.37047C14.2401 8.37047 11.5878 11.0201 11.5878 14.2767C11.5878 14.5791 11.3433 14.8515 11.0409 14.8515H5.95605C5.65363 14.8515 5.40918 14.607 5.40918 14.3046V12.5218C5.40918 12.2544 5.60277 12.0258 5.86691 11.9826L7.61145 11.6944C7.8466 10.7877 8.2048 9.92305 8.68004 9.11531L7.64754 7.67758C7.49113 7.46047 7.51574 7.16133 7.70551 6.97156L10.1943 4.4882C10.3846 4.29898 10.6816 4.27602 10.8987 4.43078L12.3364 5.45891C13.1447 4.98367 14.0093 4.62492 14.9161 4.38922L15.2043 2.64523C15.2475 2.38164 15.4761 2.1875 15.7435 2.1875H19.2533C19.5207 2.1875 19.7493 2.38109 19.7925 2.64523L20.0807 4.38922C20.9875 4.62492 21.8521 4.98367 22.6604 5.45891L24.0981 4.43078C24.3157 4.27656 24.6132 4.29953 24.8025 4.4882L27.2913 6.97156C27.4816 7.16133 27.5062 7.46047 27.3493 7.67758L26.3168 9.11531C26.792 9.92305 27.1502 10.7877 27.3854 11.6944L29.1299 11.9826C29.3935 12.0258 29.5876 12.2544 29.5876 12.5218V14.3046C29.5876 14.607 29.3432 14.8515 29.0407 14.8515H29.0429ZM24.4858 13.7577H28.4961V12.9861L26.8511 12.7138C26.6307 12.6777 26.454 12.5103 26.4064 12.2921C26.1779 11.2569 25.7726 10.2791 25.2017 9.38547C25.0808 9.1968 25.0879 8.95398 25.2181 8.77242L26.191 7.41727L24.3589 5.58906L23.0032 6.55867C22.8211 6.68773 22.5789 6.69539 22.3907 6.57453C21.4966 6.00359 20.5182 5.59781 19.4836 5.36922C19.2654 5.32055 19.0986 5.145 19.0619 4.92461L18.7901 3.28016H16.2083L15.9365 4.92461C15.9004 5.145 15.7336 5.32109 15.5149 5.36922C14.4796 5.59781 13.5013 6.00359 12.6077 6.57453C12.4201 6.69594 12.1773 6.68828 11.9952 6.55867L10.6395 5.58906L8.80746 7.41727L9.78035 8.77242C9.91051 8.95398 9.91762 9.1968 9.79676 9.38547C9.22582 10.2796 8.82059 11.2574 8.59199 12.2921C8.54387 12.5098 8.36777 12.6771 8.14738 12.7138L6.50238 12.9861V13.7577H10.5143C10.7926 10.1265 13.819 7.27672 17.4984 7.27672C21.1778 7.27672 24.2179 10.1391 24.4842 13.7577H24.4858Z" fill="#E2E8FF"/>
<path d="M6.57536 26.8737C6.49169 26.8737 6.40638 26.8546 6.32708 26.8141L3.96786 25.6088C3.8388 25.5426 3.74091 25.4283 3.69661 25.29C3.65177 25.1522 3.6638 25.0023 3.72997 24.8727L8.27341 15.9816C8.33958 15.8526 8.45388 15.7547 8.59224 15.7104C8.73114 15.665 8.87989 15.6781 9.0095 15.7437L11.3687 16.9496C11.6378 17.0874 11.7444 17.4166 11.6072 17.6857L7.06372 26.5762C6.96692 26.7654 6.77552 26.8743 6.57591 26.8743L6.57536 26.8737ZM4.95224 24.8831L6.33747 25.5908L10.3827 17.6742L8.99747 16.966L4.95224 24.8831Z" fill="#E2E8FF"/>
<path d="M28.4224 26.8739C28.3655 26.8739 28.3086 26.8646 28.2534 26.8471C28.1156 26.8022 28.0008 26.7043 27.9351 26.5758L23.3939 17.6853C23.3283 17.5562 23.3157 17.4058 23.3605 17.268C23.4048 17.1296 23.5027 17.0148 23.6318 16.9492L25.9932 15.7439C26.2644 15.6055 26.5915 15.7138 26.7293 15.9823L31.2705 24.8729C31.3361 25.0019 31.3487 25.1523 31.3039 25.2907C31.259 25.4285 31.1611 25.5433 31.0326 25.6089L28.6712 26.8143C28.593 26.8536 28.5077 26.8739 28.4224 26.8739ZM24.6172 17.6749L28.6614 25.5914L30.0483 24.8838L26.0047 16.9667L24.6172 17.6749Z" fill="#E2E8FF"/>
<path d="M9.67204 28.0505C9.24438 28.0505 8.84024 27.8854 8.53454 27.5846C8.22555 27.2811 8.05274 26.8748 8.04891 26.4411C8.04454 26.0074 8.21024 25.5984 8.5143 25.2888L8.93813 24.8568C9.56594 24.2175 10.5957 24.2082 11.2345 24.8355C11.8732 25.4627 11.8831 26.493 11.2558 27.1318L10.8309 27.5644C10.5273 27.8734 10.121 28.0462 9.68735 28.0505H9.67204ZM10.097 25.4644C9.95969 25.4644 9.82243 25.5174 9.71852 25.623L9.29469 26.055C9.08962 26.2639 9.0929 26.5997 9.3018 26.8048C9.40188 26.9026 9.53313 26.9562 9.67313 26.9562H9.67805C9.81969 26.9551 9.95204 26.8988 10.0516 26.7976L10.4765 26.3651C10.681 26.1567 10.6777 25.8204 10.4688 25.6153C10.366 25.5141 10.2315 25.4644 10.0975 25.4644H10.097Z" fill="#E2E8FF"/>
<path d="M11.2094 29.5595C10.7987 29.5595 10.3875 29.4052 10.0719 29.0952C9.43372 28.4679 9.42388 27.4376 10.0511 26.7988L10.9699 25.8631C11.274 25.5541 11.6797 25.3813 12.114 25.377C12.5575 25.389 12.9567 25.5383 13.2662 25.8418C13.905 26.4691 13.9148 27.4994 13.2876 28.1381L12.3688 29.0738C12.0516 29.3976 11.63 29.5595 11.2094 29.5595ZM10.8381 28.3153C11.047 28.5198 11.3828 28.5155 11.5873 28.3082L12.5061 27.3725C12.7106 27.1636 12.7079 26.8273 12.499 26.6222C12.2906 26.4177 11.9537 26.4209 11.7497 26.6298L10.831 27.5655C10.6259 27.7739 10.6292 28.1102 10.8381 28.3153Z" fill="#E2E8FF"/>
<path d="M12.7463 31.0682C12.3351 31.0682 11.9244 30.914 11.6088 30.6039C10.9706 29.9761 10.9613 28.9458 11.588 28.3076L12.9087 26.9623C13.5366 26.323 14.5663 26.3137 15.2051 26.9409C15.8438 27.5687 15.8531 28.5991 15.2264 29.2373L13.9057 30.5826C13.588 30.9058 13.1669 31.0682 12.7463 31.0682ZM12.375 29.8241C12.5839 30.028 12.9191 30.0253 13.1248 29.8164L14.4449 28.4716C14.6495 28.2627 14.6462 27.9264 14.4378 27.7213C14.2289 27.5173 13.8937 27.5195 13.688 27.729L12.3679 29.0737C12.1634 29.2826 12.1666 29.619 12.375 29.8241Z" fill="#E2E8FF"/>
<path d="M14.2824 32.5776C13.8547 32.5776 13.4506 32.4124 13.1449 32.1116C12.8359 31.8081 12.6631 31.4018 12.6593 30.9681C12.6549 30.5345 12.8206 30.1254 13.1247 29.8159L14.4448 28.4711C14.7489 28.1616 15.1552 27.9888 15.5889 27.9844H15.6036C16.0318 27.9844 16.4354 28.1495 16.7411 28.4498C17.3799 29.077 17.3897 30.1073 16.7625 30.7461L15.4418 32.0914C15.1377 32.4004 14.7314 32.5732 14.2977 32.5776H14.2824ZM15.6036 29.0792C15.4664 29.0792 15.3291 29.1323 15.2257 29.2373L13.905 30.5826C13.7 30.7915 13.7032 31.1273 13.9122 31.3323C14.0139 31.4319 14.1397 31.5106 14.2884 31.4838C14.43 31.4827 14.5624 31.4264 14.6619 31.3252L15.9826 29.9799C16.1877 29.7716 16.1844 29.4352 15.9755 29.2302C15.8727 29.129 15.7376 29.0792 15.6036 29.0792Z" fill="#E2E8FF"/>
<path d="M21.5544 28.0986C21.1831 28.0986 20.8167 27.9717 20.5225 27.7404C20.2851 27.5539 20.2436 27.2099 20.4306 26.9726C20.6171 26.7352 20.9605 26.6931 21.1984 26.8807C21.3291 26.9835 21.4636 27.0054 21.5539 27.0054C21.7327 27.0054 21.8984 26.925 22.0072 26.7845C22.1926 26.5455 22.5361 26.5017 22.774 26.6871C23.0129 26.872 23.0567 27.2154 22.8713 27.4538C22.5536 27.864 22.0734 28.0991 21.5539 28.0991L21.5544 28.0986Z" fill="#E2E8FF"/>
<path d="M21.0095 30.532C20.636 30.532 20.2756 30.4078 19.9775 30.1732C19.7402 29.9862 19.6997 29.6428 19.8868 29.4054C20.0738 29.1686 20.4178 29.1282 20.6546 29.3146C20.9056 29.5121 21.2693 29.4683 21.4667 29.2178C21.6636 28.9674 21.6204 28.6032 21.3699 28.4057L17.5013 25.3585C17.2639 25.1715 17.2235 24.8281 17.4105 24.5907C17.5981 24.3539 17.9415 24.3135 18.1783 24.5L22.0469 27.5471C22.771 28.1175 22.8962 29.1708 22.3253 29.8954C22.0491 30.2465 21.6526 30.4685 21.2091 30.521C21.1418 30.5293 21.0751 30.5325 21.0089 30.5325L21.0095 30.532Z" fill="#E2E8FF"/>
<path d="M19.4444 32.1615C19.0725 32.1615 18.7061 32.0346 18.4124 31.8039L17.0053 30.697C16.7674 30.51 16.727 30.166 16.9134 29.9292C17.0994 29.6918 17.4428 29.6503 17.6813 29.8373L19.0884 30.9442C19.2185 31.047 19.3536 31.0683 19.4438 31.0683C19.6232 31.0683 19.7895 30.9885 19.8999 30.8485C20.0968 30.5985 20.0536 30.2343 19.8037 30.0375L16.3206 27.2921C16.0833 27.1051 16.0428 26.7611 16.2298 26.5243C16.4169 26.2875 16.7603 26.2471 16.9977 26.4335L20.4807 29.1789C20.8313 29.455 21.0527 29.851 21.1058 30.295C21.1583 30.7385 21.0347 31.1755 20.7585 31.526C20.4391 31.9307 19.9601 32.1626 19.4438 32.1626L19.4444 32.1615Z" fill="#E2E8FF"/>
<path d="M16.6294 32.8122C16.2575 32.8122 15.8911 32.6854 15.5975 32.4546L14.9232 31.9225C14.6858 31.7354 14.6454 31.3915 14.8324 31.1547C15.0194 30.9179 15.3634 30.8768 15.6002 31.0639L16.2739 31.5954C16.5168 31.7874 16.8968 31.7376 17.085 31.4992C17.2791 31.2493 17.2403 30.8932 16.9947 30.6904C16.9789 30.6778 16.9586 30.6581 16.9439 30.6433C16.7393 30.4311 16.7344 30.0904 16.9389 29.8788C17.144 29.6672 17.4743 29.6497 17.6931 29.8471C17.698 29.8515 17.7046 29.858 17.7111 29.864C18.398 30.4486 18.5025 31.4576 17.9457 32.174C17.6247 32.5809 17.1457 32.8128 16.6289 32.8128L16.6294 32.8122Z" fill="#E2E8FF"/>
<path d="M22.4401 27.6655C22.2684 27.6655 22.1016 27.5846 21.9966 27.4386C21.8533 27.2406 21.8593 26.9716 22.0102 26.7801C22.1054 26.6593 22.1481 26.5084 22.13 26.3547C22.112 26.2016 22.0354 26.0643 21.9145 25.9697L18.2067 23.0051C17.5313 22.4648 16.612 22.328 15.8081 22.648L14.9134 23.0067C14.7242 23.0844 14.5164 23.1248 14.302 23.1248C13.7065 23.1248 13.158 22.8022 12.8698 22.2826C12.6527 21.8938 12.6029 21.4437 12.7303 21.0161C12.8577 20.5884 13.1465 20.2384 13.5419 20.0317L16.8849 18.2664C17.5543 17.9109 18.3254 17.8218 19.0566 18.0148L21.6274 18.6831C22.089 18.8029 22.5839 18.7285 22.9892 18.4802L24.037 17.8366C24.1671 17.7567 24.3246 17.7354 24.4712 17.7759C24.6183 17.8169 24.7408 17.918 24.8102 18.0537L28.3184 24.9224C28.3901 25.0624 28.3977 25.2265 28.3398 25.3719C28.2829 25.518 28.1648 25.6323 28.0171 25.6853L22.6249 27.6333C22.5642 27.6551 22.5008 27.6661 22.439 27.6661L22.4401 27.6655ZM16.6979 21.3841C17.4827 21.3841 18.2587 21.6461 18.8898 22.1503L22.5943 25.1122C22.9421 25.3856 23.1636 25.7821 23.2167 26.2256C23.2177 26.236 23.2188 26.2453 23.2199 26.2557L27.0634 24.8672L24.1064 19.0774L23.5623 19.4116C22.9049 19.8151 22.1005 19.9355 21.3534 19.7413L18.7804 19.0725C18.3139 18.9484 17.8245 19.0058 17.3979 19.2322L14.0516 20.9991C13.9176 21.0697 13.8219 21.1856 13.7792 21.3278C13.7371 21.47 13.7535 21.6198 13.8263 21.7494C13.9564 21.9841 14.2769 22.0863 14.5027 21.9923L15.4029 21.6313C15.8213 21.4651 16.2609 21.3841 16.6979 21.3841Z" fill="#E2E8FF"/>
<path d="M8.61924 26.7583C8.54924 26.7583 8.47869 26.7451 8.41033 26.7167L6.77299 26.0408C6.63189 25.9828 6.52143 25.8685 6.46838 25.7247C6.41533 25.5814 6.42518 25.4228 6.49463 25.2866L10.0723 18.2855C10.2008 18.034 10.4988 17.924 10.763 18.0263L12.729 18.8138L15.2818 19.2404C15.5799 19.2901 15.7806 19.5718 15.7308 19.8698C15.6805 20.1673 15.3994 20.3702 15.1013 20.3188L12.4906 19.8824C12.4523 19.8758 12.414 19.8654 12.3774 19.8507L10.8199 19.2261L7.73877 25.2543L8.82814 25.7044C9.1076 25.8193 9.23994 26.1392 9.12455 26.4186C9.0376 26.6297 8.83416 26.7566 8.61924 26.7566V26.7583Z" fill="#E2E8FF"/>
<path d="M17.3424 30.8152C17.2182 30.8152 17.0936 30.7731 16.9907 30.6867L16.323 30.1251C16.0917 29.9309 16.0616 29.5858 16.2568 29.3551C16.4504 29.1243 16.7955 29.0936 17.0268 29.2889L17.6946 29.8505C17.9259 30.0447 17.956 30.3897 17.7607 30.6205C17.653 30.749 17.4982 30.8152 17.3418 30.8152H17.3424Z" fill="#E2E8FF"/>
</svg>
